HIERARCHY
ROOT Hips
{
    OFFSET 0.000 93.594 0.000
    CHANNELS 6 Xposition Yposition Zposition Yrotation Xrotation Zrotation
    JOINT RightHip
    {
        OFFSET -9.500 -1.594 0.000
        CHANNELS 3 Yrotation Xrotation Zrotation
        JOINT RightKnee
        {
            OFFSET 0.000 -42.000 0.000
            CHANNELS 3 Yrotation Xrotation Zrotation
            JOINT RightAnkle
            {
                OFFSET 0.000 -42.000 0.000
                CHANNELS 3 Yrotation Xrotation Zrotation
                End Site
                {
                    OFFSET 0.000 -8.000 17.500
                }
            }
        }
    }
    JOINT LeftHip
    {
        OFFSET 9.500 -1.594 0.000
        CHANNELS 3 Yrotation Xrotation Zrotation
        JOINT LeftKnee
        {
            OFFSET 0.000 -42.000 0.000
            CHANNELS 3 Yrotation Xrotation Zrotation
            JOINT LeftAnkle
            {
                OFFSET 0.000 -42.000 0.000
                CHANNELS 3 Yrotation Xrotation Zrotation
                End Site
                {
                    OFFSET 0.000 -8.000 17.500
                }
            }
        }
    }
    JOINT Chest
    {
        OFFSET 0.000 14.348 0.000
        CHANNELS 3 Yrotation Xrotation Zrotation
        JOINT Chest2
        {
            OFFSET 0.000 9.746 0.000
            CHANNELS 3 Yrotation Xrotation Zrotation
            JOINT Chest3
            {
                OFFSET 0.000 10.149 0.000
                CHANNELS 3 Yrotation Xrotation Zrotation
                JOINT Chest4
                {
                    OFFSET 0.000 9.746 0.000
                    CHANNELS 3 Yrotation Xrotation Zrotation
                    JOINT Neck
                    {
                        OFFSET 0.000 10.417 0.000
                        CHANNELS 3 Yrotation Xrotation Zrotation
                        JOINT Head
                        {
                            OFFSET 0.000 9.000 0.000
                            CHANNELS 3 Yrotation Xrotation Zrotation
                            End Site
                            {
                                OFFSET 0.000 16.000 0.000
                            }
                        }
                    }
                    JOINT RightCollar
                    {
                        OFFSET -3.200 6.945 0.000
                        CHANNELS 3 Yrotation Xrotation Zrotation
                        JOINT RightShoulder
                        {
                            OFFSET -12.800 0.000 0.000
                            CHANNELS 3 Yrotation Xrotation Zrotation
                            JOINT RightElbow
                            {
OFFSET -0 -27 0.000
						CHANNELS 3 Xrotation Yrotation Zrotation
                                JOINT RightWrist
                                {
OFFSET -0 -26 0.000
						CHANNELS 3 Xrotation Yrotation Zrotation
                                    JOINT RightFinger0
                                    {
OFFSET -0.196 -2.56 3.210
						CHANNELS 3 Xrotation Yrotation Zrotation
                                        JOINT RightFinger01
                                        {
OFFSET -0 -3.788 0.000
						CHANNELS 3 Xrotation Yrotation Zrotation
                                            JOINT RightFinger0Nub
                                            {
OFFSET -0 -2.631 0.000
						CHANNELS 3 Xrotation Yrotation Zrotation
                                                End Site
                                                {
OFFSET 0 -2.256 0
                                                }
                                            }
                                        }
                                    }
                                    JOINT RightFinger1
                                    {
OFFSET -0.523 -3.316 2.035
						CHANNELS 3 Xrotation Yrotation Zrotation
                                        JOINT RightFinger11
                                        {
OFFSET 0.094 -5.366 1.028
						CHANNELS 3 Xrotation Yrotation Zrotation
                                            JOINT RightFinger12
                                            {
OFFSET -0 -3.723 0.000
						CHANNELS 3 Xrotation Yrotation Zrotation
                                                JOINT RightFinger1Nub
                                                {
OFFSET -0 -2.111 0.000
						CHANNELS 3 Xrotation Yrotation Zrotation
                                                    End Site
                                                    {
OFFSET 0 -1.857 0
                                                    }
                                                }
                                            }
                                        }
                                    }
                                    JOINT RightFinger2
                                    {
OFFSET -0.532 -3.479 0.778
						CHANNELS 3 Xrotation Yrotation Zrotation
                                        JOINT RightFinger21
                                        {
OFFSET 0.086 -5.322 0.323
						CHANNELS 3 Xrotation Yrotation Zrotation
                                            JOINT RightFinger22
                                            {
OFFSET -0 -4.062 0.000
						CHANNELS 3 Xrotation Yrotation Zrotation
                                                JOINT RightFinger2Nub
                                                {
OFFSET -0 -2.547 0.000
						CHANNELS 3 Xrotation Yrotation Zrotation
                                                    End Site
                                                    {
OFFSET 0 -2.031 0
                                                    }
                                                }
                                            }
                                        }
                                    }
                                    JOINT RightFinger3
                                    {
OFFSET -0.553 -3.461 -0.133
						CHANNELS 3 Xrotation Yrotation Zrotation
                                        JOINT RightFinger31
                                        {
OFFSET 0.023 -4.767 -0.493
						CHANNELS 3 Xrotation Yrotation Zrotation
                                            JOINT RightFinger32
                                            {
OFFSET -0 -3.541 0.000
						CHANNELS 3 Xrotation Yrotation Zrotation
                                                JOINT RightFinger3Nub
                                                {
OFFSET -0 -2.456 0.000
						CHANNELS 3 Xrotation Yrotation Zrotation
                                                    End Site
                                                    {
OFFSET 0 -1.91 0
                                                    }
                                                }
                                            }
                                        }
                                    }
                                    JOINT RightFinger4
                                    {
OFFSET -0.483 -3.251 -1.236
						CHANNELS 3 Xrotation Yrotation Zrotation
                                        JOINT RightFinger41
                                        {
OFFSET 0.023 -4.259 -1.122
						CHANNELS 3 Xrotation Yrotation Zrotation
                                            JOINT RightFinger42
                                            {
OFFSET -0 -2.835 0.000
						CHANNELS 3 Xrotation Yrotation Zrotation
                                                JOINT RightFinger4Nub
                                                {
OFFSET -0 -1.792 0.000
						CHANNELS 3 Xrotation Yrotation Zrotation
                                                    End Site
                                                    {
OFFSET 0 -1.692 0
                                                    }
                                                }
                                            }
                                        }
                                    }
                                }
                            }
                        }
                    }
                    JOINT LeftCollar
                    {
                        OFFSET 3.200 6.945 0.000
                        CHANNELS 3 Yrotation Xrotation Zrotation
                        JOINT LeftShoulder
                        {
                            OFFSET 12.800 0.000 0.000
                            CHANNELS 3 Yrotation Xrotation Zrotation
                            JOINT LeftElbow
                            {
OFFSET -0 -27 0.000
						CHANNELS 3 Xrotation Yrotation Zrotation
                                JOINT LeftWrist
                                {
OFFSET -0 -26 0.000
						CHANNELS 3 Xrotation Yrotation Zrotation
                                    JOINT LeftFinger0
                                    {
OFFSET -0.196 -2.56 3.210
						CHANNELS 3 Xrotation Yrotation Zrotation
                                        JOINT LeftFinger01
                                        {
OFFSET -0 -3.788 0.000
						CHANNELS 3 Xrotation Yrotation Zrotation
                                            JOINT LeftFinger0Nub
                                            {
OFFSET -0 -2.631 0.000
						CHANNELS 3 Xrotation Yrotation Zrotation
                                                End Site
                                                {
OFFSET 0 -2.256 0
                                                }
                                            }
                                        }
                                    }
                                    JOINT LeftFinger1
                                    {
OFFSET -0.523 -3.316 2.035
						CHANNELS 3 Xrotation Yrotation Zrotation
                                        JOINT LeftFinger11
                                        {
OFFSET 0.094 -5.366 1.028
						CHANNELS 3 Xrotation Yrotation Zrotation
                                            JOINT LeftFinger12
                                            {
OFFSET -0 -3.723 0.000
						CHANNELS 3 Xrotation Yrotation Zrotation
                                                JOINT LeftFinger1Nub
                                                {
OFFSET -0 -2.111 0.000
						CHANNELS 3 Xrotation Yrotation Zrotation
                                                    End Site
                                                    {
OFFSET 0 -1.857 0
                                                    }
                                                }
                                            }
                                        }
                                    }
                                    JOINT LeftFinger2
                                    {
OFFSET -0.532 -3.479 0.778
						CHANNELS 3 Xrotation Yrotation Zrotation
                                        JOINT LeftFinger21
                                        {
OFFSET 0.086 -5.322 0.323
						CHANNELS 3 Xrotation Yrotation Zrotation
                                            JOINT LeftFinger22
                                            {
OFFSET -0 -4.062 0.000
						CHANNELS 3 Xrotation Yrotation Zrotation
                                                JOINT LeftFinger2Nub
                                                {
OFFSET -0 -2.547 0.000
						CHANNELS 3 Xrotation Yrotation Zrotation
                                                    End Site
                                                    {
OFFSET 0 -2.031 0
                                                    }
                                                }
                                            }
                                        }
                                    }
                                    JOINT LeftFinger3
                                    {
OFFSET -0.553 -3.461 -0.133
						CHANNELS 3 Xrotation Yrotation Zrotation
                                        JOINT LeftFinger31
                                        {
OFFSET 0.023 -4.767 -0.493
						CHANNELS 3 Xrotation Yrotation Zrotation
                                            JOINT LeftFinger32
                                            {
OFFSET -0 -3.541 0.000
						CHANNELS 3 Xrotation Yrotation Zrotation
                                                JOINT LeftFinger3Nub
                                                {
OFFSET -0 -2.456 0.000
						CHANNELS 3 Xrotation Yrotation Zrotation
                                                    End Site
                                                    {
OFFSET 0 -1.91 0
                                                    }
                                                }
                                            }
                                        }
                                    }
                                    JOINT LeftFinger4
                                    {
OFFSET -0.483 -3.251 -1.236
						CHANNELS 3 Xrotation Yrotation Zrotation
                                        JOINT LeftFinger41
                                        {
OFFSET 0.023 -4.259 -1.122
						CHANNELS 3 Xrotation Yrotation Zrotation
                                            JOINT LeftFinger42
                                            {
OFFSET -0 -2.835 0.000
						CHANNELS 3 Xrotation Yrotation Zrotation
                                                JOINT LeftFinger4Nub
                                                {
OFFSET -0 -1.792 0.000
						CHANNELS 3 Xrotation Yrotation Zrotation
                                                    End Site
                                                    {
OFFSET 0 -1.692 0
                                                    }
                                                }
                                            }
                                        }
                                    }
                                }
                            }
                        }
                    }
                }
            }
        }
    }
}
MOTION

Frames: 10
Frame Time: 0.017
-146.94 93.14 -48.78 69.67 0.42 -4.11 3.25 -8.02 1.47 -0.00 20.56 -0.00 -16.65 -10.06 5.35 -11.51 -14.02 4.68 -0.00 30.01 0.00 12.74 -15.02 -3.69 -11.22 -4.11 0.96 -2.82 -0.96 0.16 -4.65 -1.51 0.29 1.68 -0.74 0.49 1.71 -0.79 0.49 31.37 -22.82 3.61 16.64 -2.97 2.05 -11.89 -4.60 -13.76 -8.48 32.23 5.53 -3.9 7.07 9.47 -49.14 -0 18.00 12.26 -0 -11.82 3.27 -0 0.00 0 -0 0.00 -15 -0 21.66 0 -0 17.03 0 -0 8.52 0 -0 0.00 0 -0 12.10 0 -0 12.10 0 -0 12.10 0 -0 0.00 15 -0 24.75 0 -0 24.75 0 -0 24.75 0 -0 0.00 25 -0 -38.17 0 -0 -38.17 0 -0 -38.17 -5.99 0.90 -0.30 10.28 -11.31 19.01 -10.24 -23.34 -8.89 5.78 4.99 -11.73 -12.66 0 -41.42 -15.27 0 2.79 15.45 0 0.00 0.00 0 0.00 -15.00 0 -17.61 0.00 0 -6.72 0.00 0 -3.36 0.00 0 0.00 0.00 0 -24.23 0.00 0 -24.23 0.00 0 -24.23 0.00 0 0.00 15.00 0 -24.15 0.00 0 -24.15 0.00 0 -24.15 0.00 0 0.00 25.00 0 -21.05 0.00 0 -21.05 0.00 0 -21.05 
-146.79 93.14 -48.71 69.84 0.26 -4.17 3.05 -7.57 1.56 0.00 20.29 0.00 -16.60 -10.01 5.34 -11.65 -13.79 4.70 -0.00 30.13 -0.00 12.74 -15.19 -3.70 -11.31 -4.09 0.96 -2.84 -0.95 0.16 -4.69 -1.50 0.29 1.67 -0.74 0.49 1.70 -0.78 0.49 31.09 -22.57 3.77 16.65 -2.96 2.11 -12.18 -4.54 -13.79 -8.52 32.49 5.60 -4.33 6 9.25 -49.13 -0 17.98 12.27 -0 -11.84 3.27 -0 0.00 0 -0 0.00 -15 -0 21.70 0 -0 16.88 0 -0 8.44 0 -0 0.00 0 -0 12.09 0 -0 12.09 0 -0 12.09 0 -0 0.00 15 -0 24.78 0 -0 24.78 0 -0 24.78 0 -0 0.00 25 -0 -38.09 0 -0 -38.09 0 -0 -38.09 -6.03 0.95 -0.33 10.29 -11.23 19.04 -10.00 -22.23 -8.91 5.60 5.41 -11.47 -12.59 0 -41.40 -15.14 0 2.82 15.54 0 0.00 0.00 0 0.00 -15.00 0 -17.72 0.00 0 -7.15 0.00 0 -3.58 0.00 0 0.00 0.00 0 -24.51 0.00 0 -24.51 0.00 0 -24.51 0.00 0 0.00 15.00 0 -24.37 0.00 0 -24.37 0.00 0 -24.37 0.00 0 0.00 25.00 0 -21.28 0.00 0 -21.28 0.00 0 -21.28 
-146.65 93.17 -48.75 65.83 1.71 -4.66 3.87 -9.46 1.82 0.00 19.84 0.00 -14.49 -9.23 5.18 -8.17 -15.08 5.24 -0.00 30.37 0.00 12.12 -16.02 -3.22 -11.16 -4.48 3.11 -2.81 -1.02 0.69 -4.66 -1.54 1.16 2.11 -0.50 0.49 7.68 -0.75 0.66 36.25 -20.00 2.94 16.03 -1.64 1.97 -17.28 -2.86 -15.26 -9.62 34.08 6.43 -0.73 7.34 6.01 -48.9 -0 17.12 12.73 -0 -12.70 4.62 -0 0.00 0 -0 0.00 -15 -0 23.40 0 -0 18.50 0 -0 9.25 0 -0 0.00 0 -0 13.37 0 -0 13.37 0 -0 13.37 0 -0 0.00 15 -0 25.85 0 -0 25.85 0 -0 25.85 0 -0 0.00 25 -0 -37.37 0 -0 -37.37 0 -0 -37.37 -6.30 1.21 -0.65 7.10 -8.74 17.8 -10.93 -14.54 -7.00 6.72 -8.96 -8.62 -12.46 0 -40.44 -14.87 0 3.77 16.39 0 0.00 0.00 0 0.00 -15.00 0 -18.66 0.00 0 -7.26 0.00 0 -3.63 0.00 0 0.00 0.00 0 -24.06 0.00 0 -24.06 0.00 0 -24.06 0.00 0 0.00 15.00 0 -25.98 0.00 0 -25.98 0.00 0 -25.98 0.00 0 0.00 25.00 0 -22.12 0.00 0 -22.12 0.00 0 -22.12 
-146.55 93.19 -48.79 65.76 1.68 -4.68 4.01 -9.27 1.79 0.00 19.60 0.00 -14.53 -9.14 5.20 -8.10 -14.99 5.20 -0.00 30.34 0.00 12.15 -16.06 -3.18 -11.11 -4.49 3.07 -2.80 -1.02 0.68 -4.64 -1.55 1.15 2.08 -0.52 0.49 7.05 -0.74 0.63 36.25 -20.25 2.85 16.02 -1.68 1.98 -17.04 -2.86 -15.19 -9.33 34.12 6.20 -0.73 7.39 6.04 -48.89 -0 17.12 12.75 -0 -12.70 4.6 -0 0.00 0 -0 0.00 -15 -0 23.35 0 -0 18.46 0 -0 9.23 0 -0 0.00 0 -0 13.38 0 -0 13.38 0 -0 13.38 0 -0 0.00 15 -0 25.83 0 -0 25.83 0 -0 25.83 0 -0 0.00 25 -0 -37.32 0 -0 -37.32 0 -0 -37.32 -6.24 1.30 -0.69 6.81 -8.81 17.97 -10.82 -14.36 -7.00 6.68 -9.48 -8.66 -12.47 0 -40.50 -14.90 0 3.72 16.35 0 0.00 0.00 0 0.00 -15.00 0 -18.65 0.00 0 -7.19 0.00 0 -3.60 0.00 0 0.00 0.00 0 -24.01 0.00 0 -24.01 0.00 0 -24.01 0.00 0 0.00 15.00 0 -25.96 0.00 0 -25.96 0.00 0 -25.96 0.00 0 0.00 25.00 0 -22.10 0.00 0 -22.10 0.00 0 -22.10 
-146.48 93.20 -48.79 65.72 1.67 -4.72 4.08 -9.13 1.80 -0.00 19.41 -0.00 -14.52 -9.09 5.20 -9.13 -14.82 5.19 -0.00 30.30 -0.00 13.29 -16.03 -3.44 -11.04 -4.56 2.91 -2.78 -1.04 0.64 -4.61 -1.59 1.08 2.06 -0.53 0.50 6.44 -0.74 0.63 36.13 -20.59 2.97 16.02 -1.77 1.99 -17.15 -2.61 -14.94 -9.24 34.41 6.03 -0.72 7.39 6.11 -48.9 -0 17.13 12.75 -0 -12.69 4.58 -0 0.00 0 -0 0.00 -15 -0 23.40 0 -0 18.32 0 -0 9.16 0 -0 0.00 0 -0 13.41 0 -0 13.41 0 -0 13.41 0 -0 0.00 15 -0 25.86 0 -0 25.86 0 -0 25.86 0 -0 0.00 25 -0 -37.30 0 -0 -37.30 0 -0 -37.30 -6.27 1.48 -0.53 6.76 -8.81 18.08 -10.82 -14.36 -7.00 6.71 -9.94 -8.76 -12.48 0 -40.59 -14.92 0 3.63 16.29 0 0.00 0.00 0 0.00 -15.00 0 -18.61 0.00 0 -7.12 0.00 0 -3.56 0.00 0 0.00 0.00 0 -23.93 0.00 0 -23.93 0.00 0 -23.93 0.00 0 0.00 15.00 0 -25.92 0.00 0 -25.92 0.00 0 -25.92 0.00 0 0.00 25.00 0 -22.07 0.00 0 -22.07 0.00 0 -22.07 
-146.43 93.21 -48.80 65.68 1.67 -4.75 4.11 -9.04 1.81 -0.00 19.27 -0.00 -14.46 -9.05 5.20 -9.16 -14.78 5.20 -0.00 30.28 -0.00 13.39 -16.04 -3.45 -11.03 -4.56 2.85 -2.78 -1.05 0.62 -4.60 -1.59 1.06 2.04 -0.56 0.49 5.98 -0.75 0.61 36.11 -20.93 2.88 16.09 -1.80 2.00 -17.19 -2.54 -14.84 -9.12 34.7 5.87 -0.69 7.4 6.22 -48.89 -0 17.13 12.75 -0 -12.69 4.55 -0 0.00 0 -0 0.00 -15 -0 23.38 0 -0 18.27 0 -0 9.13 0 -0 0.00 0 -0 13.45 0 -0 13.45 0 -0 13.45 0 -0 0.00 15 -0 25.85 0 -0 25.85 0 -0 25.85 0 -0 0.00 25 -0 -37.33 0 -0 -37.33 0 -0 -37.33 -6.21 1.50 -0.52 6.71 -8.79 18.19 -10.82 -14.36 -7.00 6.79 -10.27 -8.88 -12.49 0 -40.68 -14.94 0 3.54 16.24 0 0.00 0.00 0 0.00 -15.00 0 -18.56 0.00 0 -7.03 0.00 0 -3.51 0.00 0 0.00 0.00 0 -23.85 0.00 0 -23.85 0.00 0 -23.85 0.00 0 0.00 15.00 0 -25.86 0.00 0 -25.86 0.00 0 -25.86 0.00 0 0.00 25.00 0 -22.01 0.00 0 -22.01 0.00 0 -22.01 
-146.38 93.21 -48.81 65.66 1.65 -4.77 4.13 -8.93 1.81 0.00 19.13 -0.00 -14.42 -9.02 5.20 -9.24 -14.72 5.19 0.00 30.27 0.00 13.53 -16.05 -3.47 -11.04 -4.54 2.80 -2.78 -1.04 0.61 -4.61 -1.58 1.04 2.02 -0.58 0.49 5.65 -0.75 0.59 36.10 -21.27 2.77 16.13 -1.82 2.12 -16.88 -2.60 -14.77 -8.9 34.43 5.72 -0.52 7.7 6.30 -48.89 -0 17.12 12.76 -0 -12.70 4.28 -0 0.00 0 -0 0.00 -15 -0 23.22 0 -0 18.34 0 -0 9.17 0 -0 0.00 0 -0 13.34 0 -0 13.34 0 -0 13.34 0 -0 0.00 15 -0 25.83 0 -0 25.83 0 -0 25.83 0 -0 0.00 25 -0 -37.39 0 -0 -37.39 0 -0 -37.39 -6.16 1.53 -0.41 6.52 -8.80 18.22 -10.72 -28.37 -9.75 4.91 3.74 -7.70 -12.50 0 -40.72 -14.95 0 3.49 16.19 0 0.00 0.00 0 0.00 -15.00 0 -18.50 0.00 0 -6.97 0.00 0 -3.49 0.00 0 0.00 0.00 0 -23.77 0.00 0 -23.77 0.00 0 -23.77 0.00 0 0.00 15.00 0 -25.78 0.00 0 -25.78 0.00 0 -25.78 0.00 0 0.00 25.00 0 -21.95 0.00 0 -21.95 0.00 0 -21.95 
-146.34 93.22 -48.83 65.66 1.64 -4.79 4.14 -8.85 1.80 -0.00 19.03 0.00 -14.40 -9.00 5.21 -9.22 -14.68 5.18 -0.00 30.25 0.00 13.54 -16.06 -3.46 -11.05 -4.51 2.75 -2.78 -1.04 0.60 -4.61 -1.58 1.02 2.01 -0.60 0.49 5.33 -0.76 0.57 36.10 -21.64 2.64 16.15 -1.84 2.23 -16.56 -2.63 -14.71 -8.7 34.14 5.58 -0.38 8.02 6.40 -48.88 -0 17.12 12.77 -0 -12.71 4.02 -0 0.00 0 -0 0.00 -15 -0 23.11 0 -0 18.34 0 -0 9.17 0 -0 0.00 0 -0 13.21 0 -0 13.21 0 -0 13.21 0 -0 0.00 15 -0 25.82 0 -0 25.82 0 -0 25.82 0 -0 0.00 25 -0 -37.48 0 -0 -37.48 0 -0 -37.48 -6.13 1.55 -0.30 6.35 -8.79 18.23 -10.79 -28.72 -9.71 5.10 4.14 -7.95 -12.51 0 -40.75 -14.97 0 3.47 16.14 0 0.00 0.00 0 0.00 -15.00 0 -18.45 0.00 0 -6.99 0.00 0 -3.49 0.00 0 0.00 0.00 0 -23.69 0.00 0 -23.69 0.00 0 -23.69 0.00 0 0.00 15.00 0 -25.71 0.00 0 -25.71 0.00 0 -25.71 0.00 0 0.00 25.00 0 -21.90 0.00 0 -21.90 0.00 0 -21.90 
-146.30 93.22 -48.84 65.65 1.62 -4.79 4.15 -8.77 1.79 -0.00 18.94 -0.00 -14.39 -8.98 5.22 -9.19 -14.64 5.16 0.00 30.22 0.00 13.55 -16.06 -3.44 -11.04 -4.50 2.74 -2.78 -1.03 0.60 -4.61 -1.57 1.02 2.00 -0.62 0.48 5.04 -0.77 0.55 36.13 -21.90 2.45 16.18 -1.85 2.13 -15.78 -2.70 -14.44 -8.04 33.71 5.06 -0.52 7.75 6.47 -48.81 -0 17.25 12.92 -0 -12.58 4 -0 0.00 0 -0 0.00 -15 -0 23.26 0 -0 18.44 0 -0 9.22 0 -0 0.00 0 -0 13.35 0 -0 13.35 0 -0 13.35 0 -0 0.00 15 -0 25.81 0 -0 25.81 0 -0 25.81 0 -0 0.00 25 -0 -37.48 0 -0 -37.48 0 -0 -37.48 -6.10 1.54 -0.40 6.32 -8.77 18.34 -10.63 -29.58 -9.83 4.99 4.99 -7.98 -12.51 0 -40.78 -14.98 0 3.44 16.11 0 0.00 0.00 0 0.00 -15.00 0 -18.40 0.00 0 -7.01 0.00 0 -3.51 0.00 0 0.00 0.00 0 -23.62 0.00 0 -23.62 0.00 0 -23.62 0.00 0 0.00 15.00 0 -25.67 0.00 0 -25.67 0.00 0 -25.67 0.00 0 0.00 25.00 0 -21.87 0.00 0 -21.87 0.00 0 -21.87 
-146.27 93.23 -48.86 65.65 1.60 -4.80 4.16 -8.70 1.78 -0.00 18.87 0.00 -14.35 -8.96 5.22 -9.18 -14.61 5.15 0.00 30.21 0.00 13.58 -16.06 -3.44 -11.04 -4.49 2.75 -2.78 -1.03 0.60 -4.61 -1.57 1.02 1.98 -0.63 0.47 4.78 -0.77 0.53 36.14 -22.13 2.29 16.19 -1.86 2.05 -15.57 -2.72 -14.3 -7.73 33.79 4.82 -0.66 7.51 6.51 -48.75 -0 17.37 13.04 -0 -12.45 3.99 -0 0.00 0 -0 0.00 -15 -0 23.28 0 -0 18.52 0 -0 9.26 0 -0 0.00 0 -0 13.49 0 -0 13.49 0 -0 13.49 0 -0 0.00 15 -0 25.78 0 -0 25.78 0 -0 25.78 0 -0 0.00 25 -0 -37.48 0 -0 -37.48 0 -0 -37.48 -6.09 1.54 -0.51 6.31 -8.76 18.45 -10.45 -29.5 -9.81 5.04 4.97 -8.06 -12.50 0 -40.81 -14.96 0 3.41 16.09 0 0.00 0.00 0 0.00 -15.00 0 -18.37 0.00 0 -7.05 0.00 0 -3.52 0.00 0 0.00 0.00 0 -23.56 0.00 0 -23.56 0.00 0 -23.56 0.00 0 0.00 15.00 0 -25.62 0.00 0 -25.62 0.00 0 -25.62 0.00 0 0.00 25.00 0 -21.83 0.00 0 -21.83 0.00 0 -21.83 
